<svg xmlns="http://www.w3.org/2000/svg" width="24" height="24" viewBox="0 0 24 24" fill="none">
  <path d="M12.0061 1C15.9348 1.01206 19.2921 3.90715 19.9181 7.79867C20.1538 9.26392 19.8593 10.6297 19.3115 11.9683C18.4555 14.0565 17.327 15.9948 16.0608 17.8493C14.9552 19.4698 13.786 21.0455 12.6354 22.6355C12.2919 23.1092 11.755 23.1205 11.4086 22.6732C9.3301 19.988 7.37661 17.2177 5.76661 14.2182C5.11108 12.9968 4.52402 11.7433 4.1884 10.3885C3.79965 8.81997 4.03649 7.30346 4.67855 5.86007C5.80327 3.33167 7.74292 1.77748 10.4279 1.17185C10.6569 1.12232 10.8887 1.08645 11.1219 1.06444C11.4164 1.03392 11.7116 1.02073 12.0061 1ZM12.0199 11.2666C13.6056 11.2666 14.9155 9.95095 14.9193 8.35605C14.923 6.72686 13.618 5.40368 12.0113 5.40783C11.6281 5.40792 11.2486 5.48424 10.8947 5.63241C10.5407 5.78057 10.2194 5.99767 9.94894 6.27123C9.67852 6.5448 9.46439 6.86946 9.31883 7.22657C9.17328 7.58369 9.09916 7.96625 9.10074 8.35228C9.10149 9.95962 10.411 11.2673 12.0199 11.2666Z" fill="#23469A"/>
</svg>