<svg width="1920" height="436" viewBox="0 0 1920 436" fill="none" xmlns="http://www.w3.org/2000/svg">
<g filter="url(#filter0_d_430_929)">
<path fill-rule="evenodd" clip-rule="evenodd" d="M2232 266C2232 404.071 2105.74 516 1950 516C1909.51 516 1871.01 508.435 1836.21 494.812C1798.35 515.744 1752.46 528 1703 528C1618.57 528 1544.54 492.287 1503.11 438.667C1479.69 455.851 1450.78 466 1419.5 466C1412.1 466 1404.83 465.432 1397.74 464.337C1353.71 571.444 1234.81 649.457 1093.27 654.717C1037.17 836.156 867.765 968 667.5 968C485.358 968 328.745 858.938 259.683 702.693C209.983 763.318 134.509 802 50 802C-99.6692 802 -221 680.669 -221 531C-221 383.136 -102.578 262.931 44.597 260.053C61.9632 152.549 164.323 70 288 70C353.745 70 413.467 93.3274 457.599 131.33C520.142 97.9357 591.605 79 667.5 79C748.315 79 824.103 100.47 889.449 138.005C943.31 107.692 1008.18 90 1078 90C1188.27 90 1286.21 134.135 1347.9 202.423C1368.91 190.079 1393.38 183 1419.5 183C1457.87 183 1492.68 198.275 1518.17 223.076C1560.53 179.865 1625.94 151.875 1699.53 151.02C1746.48 70.8039 1841.02 16 1950 16C2105.74 16 2232 127.929 2232 266Z" fill="#F3FDFF"/>
</g>
<defs>
<filter id="filter0_d_430_929" x="-232" y="0" width="2464" height="968" filterUnits="userSpaceOnUse" color-interpolation-filters="sRGB">
<feFlood flood-opacity="0" result="BackgroundImageFix"/>
<feColorMatrix in="SourceAlpha" type="matrix" values="0 0 0 0 0 0 0 0 0 0 0 0 0 0 0 0 0 0 127 0" result="hardAlpha"/>
<feOffset dx="-11" dy="-16"/>
<feComposite in2="hardAlpha" operator="out"/>
<feColorMatrix type="matrix" values="0 0 0 0 0.956863 0 0 0 0 0.611765 0 0 0 0 0.0470588 0 0 0 0.5 0"/>
<feBlend mode="normal" in2="BackgroundImageFix" result="effect1_dropShadow_430_929"/>
<feBlend mode="normal" in="SourceGraphic" in2="effect1_dropShadow_430_929" result="shape"/>
</filter>
</defs>
</svg>
