<svg xmlns="http://www.w3.org/2000/svg" width="1920" height="704" viewBox="0 0 1920 704" fill="none">
  <g filter="url(#filter0_d_112_302)">
    <path fill-rule="evenodd" clip-rule="evenodd" d="M940.779 533.287C884.867 587.575 808.587 621 724.5 621C616.277 621 520.985 565.632 465.406 481.678C430.388 510.614 385.474 528 336.5 528C306.733 528 278.466 521.577 253.009 510.042C207.998 597.321 116.968 657 12 657C-137.669 657 -259 535.669 -259 386C-259 236.331 -137.669 115 12 115C81.1432 115 144.238 140.894 192.117 183.515C228.853 146.163 279.971 123 336.5 123C379.847 123 420.012 136.62 452.951 159.813C505.959 64.4937 607.698 0 724.5 0C866.731 0 986.626 95.6317 1023.39 226.103C1038.43 222.121 1054.21 220 1070.5 220C1171.84 220 1254 302.156 1254 403.5C1254 411.209 1253.52 418.807 1252.6 426.266C1270.79 417.755 1291.09 413 1312.5 413C1322.62 413 1332.49 414.063 1342.01 416.083C1343.31 307.568 1431.68 220 1540.5 220C1584.82 220 1625.75 234.526 1658.79 259.078C1701.37 193.996 1774.92 151 1858.5 151C1990.22 151 2097 257.78 2097 389.5C2097 521.22 1990.22 628 1858.5 628C1790.49 628 1729.13 599.534 1685.68 553.868C1649.45 592.712 1597.81 617 1540.5 617C1507.22 617 1475.86 608.812 1448.31 594.341C1431.11 653.092 1376.81 696 1312.5 696C1235.2 696 1172.38 634.018 1171.02 557.042C1142.15 575.983 1107.61 587 1070.5 587C1019.84 587 973.983 566.474 940.779 533.287Z" fill="white"/>
  </g>
  <defs>
    <filter id="filter0_d_112_302" x="-263" y="0" width="2364" height="704" filterUnits="userSpaceOnUse" color-interpolation-filters="sRGB">
      <feFlood flood-opacity="0" result="BackgroundImageFix"/>
      <feColorMatrix in="SourceAlpha" type="matrix" values="0 0 0 0 0 0 0 0 0 0 0 0 0 0 0 0 0 0 127 0" result="hardAlpha"/>
      <feOffset dy="4"/>
      <feGaussianBlur stdDeviation="2"/>
      <feComposite in2="hardAlpha" operator="out"/>
      <feColorMatrix type="matrix" values="0 0 0 0 0 0 0 0 0 0 0 0 0 0 0 0 0 0 0.25 0"/>
      <feBlend mode="normal" in2="BackgroundImageFix" result="effect1_dropShadow_112_302"/>
      <feBlend mode="normal" in="SourceGraphic" in2="effect1_dropShadow_112_302" result="shape"/>
    </filter>
  </defs>
</svg>