<svg xmlns="http://www.w3.org/2000/svg" width="24" height="24" viewBox="0 0 24 24" fill="none">
  <path d="M2 7.58529L8.73815 12.0963C8.67969 12.1393 8.63674 12.1741 8.59088 12.2037C6.4457 13.5834 4.30031 14.9631 2.1547 16.3428C2.10484 16.3703 2.05314 16.3942 2 16.4144V7.58529Z" fill="#23469A"/>
  <path d="M12.017 5C14.9022 5 17.7879 5 20.6742 5C21.283 5 21.7449 5.32127 21.9254 5.85903C21.9732 6.0016 21.969 6.09653 21.8178 6.19705C19.1068 8.00533 16.3989 9.81843 13.6941 11.6364C13.1774 11.9823 12.6606 12.3262 12.1468 12.677C12.0451 12.7467 11.9759 12.7477 11.8726 12.677C8.64029 10.5061 5.40606 8.33799 2.16988 6.17274C2.06363 6.10179 2.04069 6.03773 2.07299 5.91651C2.14144 5.67323 2.28022 5.45649 2.47132 5.29446C2.66242 5.13242 2.897 5.03258 3.14461 5.00788C3.23537 4.99934 3.32677 5.00033 3.41784 5.00033L12.017 5Z" fill="#23469A"/>
  <path d="M12.0027 19C9.11603 19 6.22942 19 3.34291 19C2.73411 19 2.27097 18.6777 2.09237 18.1397C2.04748 18.004 2.04715 17.9146 2.19637 17.8194C4.71554 16.2078 7.2303 14.59 9.74065 12.9661C9.85789 12.8902 9.93637 12.8945 10.0484 12.9717C10.5387 13.3101 11.0413 13.6287 11.5283 13.9733C11.8539 14.2032 12.1536 14.2088 12.4814 13.9786C12.9797 13.6287 13.492 13.2999 13.9945 12.9559C14.0885 12.8902 14.156 12.8902 14.2529 12.9526C16.7815 14.5838 19.3121 16.2121 21.8446 17.8378C21.9574 17.91 21.9693 17.978 21.9373 18.0937C21.867 18.3368 21.7263 18.5527 21.5335 18.7132C21.3407 18.8737 21.1049 18.9714 20.8567 18.9934C20.7659 19.001 20.6745 18.9997 20.5831 18.9997L12.0027 19Z" fill="#23469A"/>
  <path d="M22 16.4334L15.2696 12.1045L22 7.59285V16.4334Z" fill="#23469A"/>
</svg>