<svg xmlns="http://www.w3.org/2000/svg" width="24" height="24" viewBox="0 0 24 24" fill="none">
  <path d="M17.0908 22C16.6026 21.8948 16.1076 21.8134 15.6273 21.6783C14.6367 21.4026 13.7146 20.959 12.827 20.4476C10.3106 18.9965 8.16006 17.1075 6.25246 14.9339C5.01425 13.5237 3.93203 12.0044 3.09828 10.3197C2.58488 9.28328 2.18074 8.20725 2.04248 7.05081C1.95579 6.32477 1.97803 5.60324 2.3364 4.93865C2.45059 4.72719 2.5933 4.53237 2.76053 4.35962C3.34257 3.76258 3.94298 3.18484 4.52664 2.58844C5.33589 1.76172 6.59279 1.84664 7.35725 2.59005C8.26834 3.47596 9.16429 4.37699 10.0567 5.28188C10.8431 6.07869 10.8489 7.27309 10.0683 8.00009C9.89438 8.15628 9.69314 8.27917 9.47465 8.36263C8.92934 8.57751 8.49878 8.90402 8.26157 9.45281C8.10594 9.80719 8.07893 10.2046 8.18519 10.5768C8.47525 11.6628 9.09371 12.5564 9.83625 13.3735C10.6097 14.224 11.4841 14.9497 12.5251 15.4544C12.9837 15.677 13.4555 15.8749 13.985 15.806C14.7027 15.7124 15.249 15.3672 15.532 14.684C15.7076 14.2613 15.9145 13.8743 16.3183 13.6224C17.0741 13.1505 18.0055 13.2364 18.6726 13.8846C19.6117 14.7975 20.5388 15.7228 21.4539 16.6604C22.2019 17.4299 22.1742 18.6571 21.4156 19.4269C20.8164 20.0352 20.2073 20.6332 19.604 21.2373C19.1763 21.6654 18.6507 21.8807 18.0593 21.9624C18.0095 21.9719 17.9603 21.9843 17.912 21.9997L17.0908 22Z" fill="#23469A"/>
</svg>